{
.appVersion = "3343";
.formatVersion = 3;
axes = (
{
name = Weight;
tag = wght;
}
);
date = "2025-06-22 16:38:40 +0000";
familyName = Brodine;
fontMaster = (
{
axesValues = (
50
);
id = m002;
metricValues = (
{
over = 16;
pos = 700;
},
{
over = 16;
pos = 650;
},
{
over = 16;
pos = 450;
},
{
over = -16;
},
{
over = -16;
pos = -200;
},
{
}
);
name = Regular;
userData = {
GSCornerRadius = 20;
GSOffsetHorizontal = -20;
GSOffsetVertical = -20;
};
}
);
glyphs = (
{
glyphname = A;
lastChange = "2025-07-13 22:52:24 +0000";
layers = (
{
layerId = m002;
shapes = (
{
closed = 1;
nodes = (
(107,0,l),
(354,650,l),
(273,650,l),
(24,0,l)
);
},
{
closed = 1;
nodes = (
(358,650,l),
(277,650,l),
(533,0,l),
(616,0,l)
);
},
{
closed = 1;
nodes = (
(469,197,l),
(469,272,l),
(179,272,l),
(179,197,l)
);
}
);
width = 640;
}
);
unicode = 65;
},
{
glyphname = B;
lastChange = "2025-07-14 16:01:29 +0000";
layers = (
{
layerId = m002;
shapes = (
{
closed = 1;
nodes = (
(57,0,l),
(405,0,ls),
(512,0,o),
(610,74,o),
(610,201,cs),
(610,276,o),
(562,337,o),
(497,367,c),
(531,397,o),
(550,435,o),
(550,479,cs),
(550,569,o),
(480,650,o),
(345,650,cs),
(57,650,l)
);
},
{
closed = 1;
nodes = (
(147,311,l),
(405,311,ls),
(464,311,o),
(520,255,o),
(520,196,cs),
(520,117,o),
(464,75,o),
(405,75,cs),
(147,75,l)
);
},
{
closed = 1;
nodes = (
(147,575,l),
(345,575,ls),
(432,575,o),
(460,526,o),
(460,484,cs),
(460,435,o),
(432,387,o),
(345,386,c),
(147,386,l)
);
}
);
width = 641;
}
);
unicode = 66;
},
{
glyphname = C;
lastChange = "2025-07-13 22:58:14 +0000";
layers = (
{
layerId = m002;
shapes = (
{
closed = 1;
nodes = (
(511,99,o),
(442,57,o),
(340,57,cs),
(207,57,o),
(119,137,o),
(119,324,cs),
(119,511,o),
(207,591,o),
(340,591,cs),
(442,591,o),
(511,549,o),
(542,455,c),
(624,492,l),
(577,614,o),
(476,666,o),
(340,666,cs),
(160,666,o),
(29,567,o),
(29,324,cs),
(29,81,o),
(160,-18,o),
(340,-18,cs),
(476,-18,o),
(577,34,o),
(624,156,c),
(542,193,l)
);
}
);
width = 640;
}
);
unicode = 67;
},
{
glyphname = D;
lastChange = "2025-07-11 00:50:13 +0000";
layers = (
{
layerId = m002;
shapes = (
{
closed = 1;
nodes = (
(57,2,l),
(147,2,l),
(147,650,l),
(57,650,l)
);
},
{
closed = 1;
nodes = (
(320,575,ls),
(443,575,o),
(525,480,o),
(525,323,cs),
(525,160,o),
(443,75,o),
(320,75,cs),
(71,75,l),
(71,0,l),
(320,0,ls),
(480,0,o),
(615,106,o),
(615,323,cs),
(615,534,o),
(480,650,o),
(320,650,cs),
(71,650,l),
(71,575,l)
);
}
);
width = 640;
}
);
unicode = 68;
},
{
glyphname = E;
lastChange = "2025-07-11 00:40:51 +0000";
layers = (
{
layerId = m002;
shapes = (
{
closed = 1;
nodes = (
(57,0,l),
(451,0,l),
(451,75,l),
(147,75,l),
(147,312,l),
(314,312,l),
(314,387,l),
(147,387,l),
(147,575,l),
(451,575,l),
(451,650,l),
(57,650,l)
);
}
);
width = 480;
}
);
unicode = 69;
},
{
glyphname = F;
lastChange = "2025-07-11 00:41:43 +0000";
layers = (
{
layerId = m002;
shapes = (
{
closed = 1;
nodes = (
(57,0,l),
(147,0,l),
(147,272,l),
(334,272,l),
(334,347,l),
(147,347,l),
(147,575,l),
(451,575,l),
(451,650,l),
(57,650,l)
);
}
);
width = 480;
}
);
unicode = 70;
},
{
glyphname = G;
lastChange = "2025-07-14 16:01:29 +0000";
layers = (
{
layerId = m002;
shapes = (
{
closed = 1;
nodes = (
(494,-2,l),
(584,-2,l),
(584,347,l),
(494,347,l)
);
},
{
closed = 1;
nodes = (
(584,272,l),
(584,347,l),
(386,347,l),
(386,272,l)
);
},
{
closed = 1;
nodes = (
(494,116,o),
(410,57,o),
(320,57,cs),
(207,57,o),
(119,137,o),
(119,324,cs),
(119,511,o),
(207,591,o),
(320,591,cs),
(402,591,o),
(471,549,o),
(502,455,c),
(584,492,l),
(537,614,o),
(436,666,o),
(320,666,cs),
(160,666,o),
(29,567,o),
(29,324,cs),
(29,81,o),
(160,-18,o),
(320,-18,cs),
(443,-18,o),
(537,54,o),
(584,176,c),
(494,223,l)
);
}
);
width = 640;
}
);
unicode = 71;
},
{
glyphname = H;
lastChange = "2025-07-11 00:38:54 +0000";
layers = (
{
layerId = m002;
shapes = (
{
closed = 1;
nodes = (
(52,2,l),
(142,2,l),
(142,650,l),
(52,650,l)
);
},
{
closed = 1;
nodes = (
(498,2,l),
(588,2,l),
(588,650,l),
(498,650,l)
);
},
{
closed = 1;
nodes = (
(519,299,l),
(519,374,l),
(66,374,l),
(66,299,l)
);
}
);
width = 640;
}
);
unicode = 72;
},
{
glyphname = I;
lastChange = "2025-07-11 00:42:50 +0000";
layers = (
{
layerId = m002;
shapes = (
{
closed = 1;
nodes = (
(35,650,l),
(35,0,l),
(125,0,l),
(125,650,l)
);
}
);
width = 160;
}
);
unicode = 73;
},
{
glyphname = J;
lastChange = "2025-07-14 00:44:27 +0000";
layers = (
{
layerId = m002;
shapes = (
{
closed = 0;
nodes = (
(405,231,l),
(405,653,l)
);
},
{
closed = 1;
nodes = (
(405,653,l),
(51,653,l),
(51,578,l),
(315,578,l),
(315,231,ls),
(315,102,o),
(263,59,o),
(180,59,cs),
(138,59,o),
(104,76,o),
(79,97,c),
(34,33,l),
(74,1,o),
(117,-16,o),
(180,-16,cs),
(310,-16,o),
(405,48,o),
(405,231,cs)
);
}
);
width = 480;
}
);
unicode = 74;
},
{
glyphname = K;
lastChange = "2025-07-14 00:48:39 +0000";
layers = (
{
layerId = m002;
shapes = (
{
closed = 1;
nodes = (
(57,2,l),
(147,2,l),
(147,650,l),
(57,650,l)
);
},
{
closed = 1;
nodes = (
(307,430,l),
(215,430,l),
(486,0,l),
(578,0,l)
);
},
{
closed = 1;
nodes = (
(68,236,l),
(135,236,l),
(511,650,l),
(410,650,l),
(68,273,l)
);
}
);
width = 600;
}
);
unicode = 75;
},
{
glyphname = L;
lastChange = "2025-07-11 00:43:06 +0000";
layers = (
{
layerId = m002;
shapes = (
{
closed = 1;
nodes = (
(57,2,l),
(61,2,l),
(61,0,l),
(460,0,l),
(460,75,l),
(147,75,l),
(147,650,l),
(57,650,l)
);
}
);
width = 480;
}
);
unicode = 76;
},
{
glyphname = M;
lastChange = "2025-07-14 00:25:32 +0000";
layers = (
{
layerId = m002;
shapes = (
{
closed = 1;
nodes = (
(147,1,l),
(147,501,l),
(134,501,l),
(357,0,l),
(443,0,l),
(664,496,l),
(653,496,l),
(653,1,l),
(743,1,l),
(743,650,l),
(638,650,l),
(634,648,l),
(394,112,l),
(406,112,l),
(166,648,l),
(162,650,l),
(57,650,l),
(57,1,l)
);
}
);
width = 800;
}
);
unicode = 77;
},
{
glyphname = N;
lastChange = "2025-07-11 00:55:30 +0000";
layers = (
{
layerId = m002;
shapes = (
{
closed = 1;
nodes = (
(57,0,l),
(147,0,l),
(147,501,l),
(493,0,l),
(583,0,l),
(583,650,l),
(493,650,l),
(493,151,l),
(147,650,l),
(57,650,l)
);
}
);
width = 640;
}
);
unicode = 78;
},
{
glyphname = O;
lastChange = "2025-07-14 01:19:25 +0000";
layers = (
{
layerId = m002;
shapes = (
{
closed = 1;
nodes = (
(119,511,o),
(207,591,o),
(320,591,cs),
(433,591,o),
(521,511,o),
(521,325,cs),
(521,139,o),
(433,59,o),
(320,59,cs),
(207,59,o),
(119,139,o),
(119,325,cs)
);
},
{
closed = 1;
nodes = (
(29,83,o),
(160,-16,o),
(320,-16,cs),
(480,-16,o),
(611,83,o),
(611,325,cs),
(611,567,o),
(480,666,o),
(320,666,cs),
(160,666,o),
(29,567,o),
(29,325,cs)
);
}
);
width = 640;
}
);
unicode = 79;
},
{
glyphname = P;
lastChange = "2025-07-11 00:59:42 +0000";
layers = (
{
layerId = m002;
shapes = (
{
closed = 1;
nodes = (
(147,0,l),
(147,650,l),
(57,650,l),
(57,0,l)
);
},
{
closed = 1;
nodes = (
(71,230,l),
(250,230,ls),
(357,230,o),
(465,314,o),
(465,441,cs),
(465,568,o),
(357,650,o),
(250,650,cs),
(71,650,l),
(71,575,l),
(250,575,ls),
(309,575,o),
(375,520,o),
(375,441,cs),
(375,362,o),
(309,305,o),
(250,305,cs),
(71,305,l)
);
}
);
width = 480;
}
);
unicode = 80;
},
{
glyphname = Q;
lastChange = "2025-07-14 01:11:43 +0000";
layers = (
{
layerId = m002;
shapes = (
{
closed = 1;
nodes = (
(119,511,o),
(207,591,o),
(320,591,cs),
(433,591,o),
(521,511,o),
(521,325,cs),
(521,139,o),
(433,59,o),
(320,59,cs),
(207,59,o),
(119,139,o),
(119,325,cs)
);
},
{
closed = 1;
nodes = (
(29,83,o),
(160,-16,o),
(320,-16,cs),
(480,-16,o),
(611,83,o),
(611,325,cs),
(611,567,o),
(480,666,o),
(320,666,cs),
(160,666,o),
(29,567,o),
(29,325,cs)
);
},
{
closed = 1;
nodes = (
(527,-57,l),
(593,-2,l),
(523,82,l),
(458,27,l)
);
}
);
width = 640;
}
);
unicode = 81;
},
{
glyphname = R;
lastChange = "2025-07-14 00:29:27 +0000";
layers = (
{
layerId = m002;
shapes = (
{
closed = 1;
nodes = (
(202,298,l),
(368,0,l),
(461,0,l),
(295,298,l)
);
},
{
closed = 1;
nodes = (
(147,0,l),
(147,650,l),
(57,650,l),
(57,0,l)
);
},
{
closed = 1;
nodes = (
(71,230,l),
(250,230,ls),
(357,230,o),
(465,314,o),
(465,441,cs),
(465,568,o),
(357,650,o),
(250,650,cs),
(71,650,l),
(71,575,l),
(250,575,ls),
(309,575,o),
(375,520,o),
(375,441,cs),
(375,362,o),
(309,305,o),
(250,305,cs),
(71,305,l)
);
}
);
width = 480;
}
);
unicode = 82;
},
{
glyphname = S;
lastChange = "2025-07-14 16:01:29 +0000";
layers = (
{
layerId = m002;
shapes = (
{
closed = 1;
nodes = (
(166,665,o),
(66,620,o),
(66,493,cs),
(66,398,o),
(147,344,o),
(199,321,cs),
(260,294,ls),
(319,267,o),
(376,258,o),
(376,173,cs),
(376,107,o),
(332,61,o),
(245,61,cs),
(190,61,o),
(153,73,o),
(114,112,c),
(64,51,l),
(121,4,o),
(172,-14,o),
(259,-14,cs),
(348,-14,o),
(466,40,o),
(466,173,cs),
(466,285,o),
(394,326,o),
(298,370,cs),
(238,397,ls),
(174,426,o),
(156,464,o),
(156,493,cs),
(156,556,o),
(188,590,o),
(248,590,cs),
(291,590,o),
(343,586,o),
(382,556,c),
(416,617,l),
(379,644,o),
(326,665,o),
(248,665,cs)
);
}
);
width = 480;
}
);
unicode = 83;
},
{
glyphname = T;
lastChange = "2025-07-11 00:43:39 +0000";
layers = (
{
layerId = m002;
shapes = (
{
closed = 1;
nodes = (
(195,2,l),
(285,2,l),
(285,650,l),
(195,650,l)
);
},
{
closed = 0;
nodes = (
(459,650,l),
(21,650,l)
);
},
{
closed = 1;
nodes = (
(21,650,l),
(21,575,l),
(459,575,l),
(459,650,l)
);
}
);
width = 480;
}
);
unicode = 84;
},
{
glyphname = U;
lastChange = "2025-07-13 22:53:48 +0000";
layers = (
{
layerId = m002;
shapes = (
{
closed = 1;
nodes = (
(495,650,l),
(585,650,l),
(585,249,ls),
(585,76,o),
(490,-18,o),
(320,-18,cs),
(150,-18,o),
(55,76,o),
(55,249,cs),
(55,650,l),
(145,650,l),
(145,235,ls),
(145,121,o),
(208,59,o),
(320,59,cs),
(432,59,o),
(495,121,o),
(495,235,cs)
);
}
);
width = 640;
}
);
unicode = 85;
},
{
glyphname = V;
lastChange = "2025-07-14 00:32:08 +0000";
layers = (
{
layerId = m002;
shapes = (
{
closed = 1;
nodes = (
(282,0,l),
(358,0,l),
(623,650,l),
(538,650,l),
(311,98,l),
(329,98,l),
(108,650,l),
(17,650,l)
);
}
);
width = 640;
}
);
unicode = 86;
},
{
glyphname = W;
lastChange = "2025-07-14 00:35:58 +0000";
layers = (
{
layerId = m002;
shapes = (
{
closed = 1;
nodes = (
(186,0,l),
(265,0,l),
(401,522,l),
(389,521,l),
(524,0,l),
(603,0,l),
(791,650,l),
(712,650,l),
(558,133,l),
(568,133,l),
(434,650,l),
(355,650,l),
(221,133,l),
(233,133,l),
(87,650,l),
(8,650,l)
);
}
);
width = 800;
}
);
unicode = 87;
},
{
glyphname = X;
lastChange = "2025-07-13 22:56:44 +0000";
layers = (
{
layerId = m002;
shapes = (
{
closed = 1;
nodes = (
(140,650,l),
(57,650,l),
(364,1,l),
(447,1,l)
);
},
{
closed = 1;
nodes = (
(265,307,l),
(427,650,l),
(344,650,l),
(224,396,l)
);
},
{
closed = 1;
nodes = (
(220,396,l),
(33,1,l),
(116,1,l),
(261,307,l)
);
}
);
width = 480;
}
);
unicode = 88;
},
{
glyphname = Y;
lastChange = "2025-07-13 23:50:27 +0000";
layers = (
{
layerId = m002;
shapes = (
{
closed = 1;
nodes = (
(195,303,l),
(195,0,l),
(285,0,l),
(285,303,l),
(459,650,l),
(369,650,l),
(234,381,l),
(247,381,l),
(111,650,l),
(21,650,l)
);
}
);
width = 480;
}
);
unicode = 89;
},
{
glyphname = Z;
lastChange = "2025-07-14 00:50:20 +0000";
layers = (
{
layerId = m002;
shapes = (
{
closed = 1;
nodes = (
(31,75,l),
(139,75,l),
(447,575,l),
(339,575,l)
);
},
{
closed = 1;
nodes = (
(31,75,l),
(31,0,l),
(449,0,l),
(449,75,l)
);
},
{
closed = 1;
nodes = (
(31,650,l),
(31,575,l),
(449,575,l),
(449,650,l)
);
}
);
width = 480;
}
);
unicode = 90;
},
{
glyphname = a;
lastChange = "2025-07-14 16:01:29 +0000";
layers = (
{
layerId = m002;
shapes = (
{
closed = 1;
nodes = (
(186,276,ls),
(72,276,o),
(29,195,o),
(29,122,cs),
(29,62,o),
(81,-17,o),
(191,-17,cs),
(256,-17,o),
(337,11,o),
(354,52,c),
(345,149,l),
(329,71,o),
(238,49,o),
(199,49,cs),
(144,49,o),
(105,69,o),
(105,124,cs),
(105,175,o),
(134,210,o),
(208,210,c),
(345,210,l),
(345,276,l)
);
},
{
closed = 1;
nodes = (
(141,347,l),
(171,380,o),
(196,397,o),
(240,397,cs),
(278,397,o),
(345,382,o),
(345,314,cs),
(344,56,l),
(354,52,l),
(364,0,l),
(430,0,l),
(431,314,ls),
(431,430,o),
(327,464,o),
(240,464,cs),
(183,464,o),
(120,433,o),
(91,398,c)
);
}
);
width = 480;
}
);
unicode = 97;
},
{
glyphname = b;
lastChange = "2025-07-10 01:42:44 +0000";
layers = (
{
layerId = m002;
shapes = (
{
closed = 1;
nodes = (
(49,700,l),
(49,0,l),
(115,0,l),
(125,52,l),
(135,46,l),
(135,700,l)
);
},
{
closed = 1;
nodes = (
(135,226,l),
(135,355,o),
(171,400,o),
(250,400,cs),
(309,400,o),
(375,355,o),
(375,226,cs),
(375,107,o),
(309,53,o),
(250,53,cs),
(171,53,o),
(135,107,o),
(135,226,c),
(76,216,l),
(76,49,o),
(151,-13,o),
(250,-13,cs),
(357,-13,o),
(451,59,o),
(451,226,cs),
(451,403,o),
(357,466,o),
(250,466,cs),
(171,466,o),
(79,426,o),
(79,266,c)
);
}
);
width = 480;
}
);
unicode = 98;
},
{
glyphname = c;
lastChange = "2025-07-14 00:53:53 +0000";
layers = (
{
layerId = m002;
shapes = (
{
closed = 1;
nodes = (
(172,399,o),
(105,347,o),
(105,225,cs),
(105,103,o),
(171,51,o),
(270,51,cs),
(333,51,o),
(380,79,o),
(399,113,c),
(460,78,l),
(433,20,o),
(346,-15,o),
(270,-15,cs),
(127,-15,o),
(29,57,o),
(29,225,cs),
(29,393,o),
(128,465,o),
(270,465,cs),
(346,465,o),
(423,430,o),
(460,372,c),
(399,337,l),
(380,371,o),
(333,399,o),
(270,399,cs)
);
}
);
width = 480;
}
);
unicode = 99;
},
{
glyphname = d;
lastChange = "2025-07-10 01:35:05 +0000";
layers = (
{
layerId = m002;
shapes = (
{
closed = 1;
nodes = (
(345,46,l),
(355,52,l),
(365,0,l),
(431,0,l),
(431,700,l),
(345,700,l)
);
},
{
closed = 1;
nodes = (
(401,426,o),
(309,466,o),
(230,466,cs),
(123,466,o),
(29,403,o),
(29,226,cs),
(29,59,o),
(123,-13,o),
(230,-13,cs),
(329,-13,o),
(404,49,o),
(404,216,c),
(345,226,l),
(345,107,o),
(309,53,o),
(230,53,cs),
(171,53,o),
(105,107,o),
(105,226,cs),
(105,355,o),
(171,400,o),
(230,400,cs),
(309,400,o),
(345,355,o),
(345,226,c),
(401,266,l)
);
}
);
width = 480;
}
);
unicode = 100;
},
{
glyphname = e;
lastChange = "2025-07-14 16:01:29 +0000";
layers = (
{
layerId = m002;
shapes = (
{
closed = 1;
nodes = (
(66,196,l),
(400,196,l),
(400,262,l),
(66,262,l)
);
},
{
closed = 1;
nodes = (
(371,113,l),
(350,81,o),
(319,53,o),
(250,53,cs),
(171,53,o),
(105,97,o),
(105,226,cs),
(105,365,o),
(171,399,o),
(240,399,cs),
(309,399,o),
(375,365,o),
(375,226,cs),
(375,212,o),
(374,208,o),
(371,196,c),
(448,196,l),
(450,209,o),
(451,212,o),
(451,226,cs),
(451,413,o),
(347,465,o),
(240,465,cs),
(133,465,o),
(29,415,o),
(29,226,cs),
(29,49,o),
(133,-13,o),
(250,-13,cs),
(367,-13,o),
(406,41,o),
(430,76,c)
);
}
);
width = 480;
}
);
unicode = 101;
},
{
glyphname = f;
lastChange = "2025-07-14 16:01:29 +0000";
layers = (
{
layerId = m002;
shapes = (
{
closed = 1;
nodes = (
(142,654,o),
(107,624,o),
(107,547,cs),
(107,0,l),
(193,0,l),
(193,548,ls),
(193,573,o),
(203,586,o),
(233,586,cs),
(299,586,l),
(299,654,l),
(233,654,ls)
);
},
{
closed = 1;
nodes = (
(299,384,l),
(299,450,l),
(21,450,l),
(21,384,l)
);
}
);
width = 320;
}
);
unicode = 102;
},
{
glyphname = g;
lastChange = "2025-07-14 00:53:35 +0000";
layers = (
{
layerId = m002;
shapes = (
{
closed = 1;
nodes = (
(345,-79,o),
(299,-137,o),
(230,-137,c),
(189,-137,o),
(162,-111,o),
(140,-81,c),
(63,-123,l),
(101,-180,o),
(156,-213,o),
(230,-213,cs),
(337,-213,o),
(431,-127,o),
(431,0,c),
(345,0,l)
);
},
{
closed = 1;
nodes = (
(431,0,l),
(431,453,l),
(365,453,l),
(355,401,l),
(345,407,l),
(345,0,l)
);
},
{
closed = 1;
nodes = (
(345,227,l),
(345,98,o),
(289,53,o),
(230,53,cs),
(171,53,o),
(105,98,o),
(105,227,cs),
(105,346,o),
(171,400,o),
(230,400,cs),
(289,400,o),
(345,346,o),
(345,227,c),
(404,237,l),
(404,404,o),
(329,466,o),
(230,466,cs),
(123,466,o),
(29,394,o),
(29,227,cs),
(29,50,o),
(123,-13,o),
(230,-13,cs),
(309,-13,o),
(401,27,o),
(401,187,c)
);
}
);
width = 480;
}
);
unicode = 103;
},
{
glyphname = h;
lastChange = "2025-07-08 23:28:37 +0000";
layers = (
{
layerId = m002;
shapes = (
{
closed = 1;
nodes = (
(345,0,l),
(431,0,l),
(431,316,ls),
(431,432,o),
(357,466,o),
(260,466,cs),
(113,466,o),
(57,363,o),
(56,207,c),
(129,206,l),
(130,324,o),
(141,400,o),
(250,400,cs),
(309,400,o),
(345,384,o),
(345,316,cs)
);
},
{
closed = 1;
nodes = (
(129,700,l),
(43,700,l),
(43,0,l),
(129,0,l)
);
}
);
width = 480;
}
);
unicode = 104;
},
{
glyphname = i;
lastChange = "2025-07-14 02:15:22 +0000";
layers = (
{
layerId = m002;
shapes = (
{
closed = 1;
nodes = (
(111,501,o),
(132,522,o),
(132,554,cs),
(132,585,o),
(111,606,o),
(80,606,cs),
(48,606,o),
(27,585,o),
(27,554,cs),
(27,522,o),
(48,501,o),
(80,501,cs)
);
},
{
closed = 1;
nodes = (
(37,450,l),
(37,0,l),
(123,0,l),
(123,450,l)
);
}
);
width = 160;
}
);
unicode = 105;
},
{
glyphname = j;
lastChange = "2025-07-14 02:20:44 +0000";
layers = (
{
layerId = m002;
shapes = (
{
closed = 1;
nodes = (
(-115,-167,l),
(-82,-200,o),
(-42,-216,o),
(2,-216,cs),
(97,-216,o),
(123,-148,o),
(123,-45,cs),
(123,450,l),
(37,450,l),
(37,-45,ls),
(37,-94,o),
(27,-130,o),
(-9,-130,cs),
(-29,-130,o),
(-49,-124,o),
(-57,-111,c)
);
},
{
closed = 1;
nodes = (
(111,501,o),
(132,522,o),
(132,554,cs),
(132,585,o),
(111,606,o),
(80,606,cs),
(48,606,o),
(27,585,o),
(27,554,cs),
(27,522,o),
(48,501,o),
(80,501,cs)
);
}
);
width = 160;
}
);
unicode = 106;
},
{
glyphname = k;
lastChange = "2025-07-10 01:44:37 +0000";
layers = (
{
layerId = m002;
shapes = (
{
closed = 1;
nodes = (
(49,0,l),
(135,0,l),
(135,700,l),
(49,700,l)
);
},
{
closed = 1;
nodes = (
(296,321,l),
(209,321,l),
(367,0,l),
(454,0,l)
);
},
{
closed = 1;
nodes = (
(53,118,l),
(125,118,l),
(426,450,l),
(320,450,l),
(53,155,l)
);
}
);
width = 480;
}
);
unicode = 107;
},
{
glyphname = l;
lastChange = "2025-07-08 23:19:41 +0000";
layers = (
{
layerId = m002;
shapes = (
{
closed = 1;
nodes = (
(37,700,l),
(37,0,l),
(123,0,l),
(123,700,l)
);
}
);
width = 160;
}
);
unicode = 108;
},
{
glyphname = m;
lastChange = "2025-07-08 23:39:29 +0000";
layers = (
{
layerId = m002;
shapes = (
{
closed = 1;
nodes = (
(135,394,l),
(125,398,l),
(115,450,l),
(49,450,l),
(49,0,l),
(135,0,l)
);
},
{
closed = 1;
nodes = (
(357,0,l),
(443,0,l),
(443,306,ls),
(443,432,o),
(347,466,o),
(260,466,cs),
(134,466,o),
(66,347,o),
(66,206,c),
(135,206,l),
(136,324,o),
(147,400,o),
(250,400,cs),
(299,400,o),
(357,384,o),
(357,306,cs)
);
},
{
closed = 1;
nodes = (
(665,0,l),
(751,0,l),
(751,306,ls),
(751,432,o),
(667,466,o),
(580,466,cs),
(454,466,o),
(374,347,o),
(374,206,c),
(443,206,l),
(444,324,o),
(467,400,o),
(570,400,cs),
(619,400,o),
(665,384,o),
(665,306,cs)
);
}
);
width = 800;
}
);
unicode = 109;
},
{
glyphname = n;
lastChange = "2025-07-14 16:01:29 +0000";
layers = (
{
layerId = m002;
shapes = (
{
closed = 1;
nodes = (
(345,0,l),
(431,0,l),
(431,306,ls),
(431,432,o),
(347,466,o),
(260,466,cs),
(134,466,o),
(66,347,o),
(66,206,c),
(135,206,l),
(136,324,o),
(147,400,o),
(250,400,cs),
(299,400,o),
(345,384,o),
(345,306,cs)
);
},
{
closed = 1;
nodes = (
(135,394,l),
(125,398,l),
(115,450,l),
(49,450,l),
(49,0,l),
(135,0,l)
);
}
);
width = 480;
}
);
unicode = 110;
},
{
glyphname = o;
lastChange = "2025-07-08 19:12:17 +0000";
layers = (
{
layerId = m002;
shapes = (
{
closed = 1;
nodes = (
(347,-13,o),
(451,59,o),
(451,226,cs),
(451,393,o),
(347,465,o),
(240,465,cs),
(133,465,o),
(29,395,o),
(29,226,cs),
(29,59,o),
(133,-13,o),
(240,-13,cs)
);
},
{
closed = 1;
nodes = (
(171,53,o),
(105,107,o),
(105,226,cs),
(105,345,o),
(171,399,o),
(240,399,cs),
(309,399,o),
(375,345,o),
(375,226,cs),
(375,107,o),
(309,53,o),
(240,53,cs)
);
}
);
width = 480;
}
);
unicode = 111;
},
{
glyphname = p;
lastChange = "2025-07-08 23:12:45 +0000";
layers = (
{
layerId = m002;
shapes = (
{
closed = 1;
nodes = (
(135,407,l),
(125,401,l),
(115,453,l),
(49,453,l),
(49,-200,l),
(135,-200,l)
);
},
{
closed = 1;
nodes = (
(79,27,o),
(171,-13,o),
(250,-13,cs),
(357,-13,o),
(451,50,o),
(451,227,cs),
(451,394,o),
(357,466,o),
(250,466,cs),
(151,466,o),
(76,404,o),
(76,237,c),
(135,227,l),
(135,346,o),
(191,400,o),
(250,400,cs),
(309,400,o),
(375,346,o),
(375,227,cs),
(375,98,o),
(309,53,o),
(250,53,cs),
(191,53,o),
(135,98,o),
(135,227,c),
(79,187,l)
);
}
);
width = 480;
}
);
unicode = 112;
},
{
glyphname = q;
lastChange = "2025-07-08 23:15:11 +0000";
layers = (
{
layerId = m002;
shapes = (
{
closed = 1;
nodes = (
(431,-200,l),
(431,453,l),
(365,453,l),
(355,401,l),
(345,407,l),
(345,-200,l)
);
},
{
closed = 1;
nodes = (
(345,227,l),
(345,98,o),
(289,53,o),
(230,53,cs),
(171,53,o),
(105,98,o),
(105,227,cs),
(105,346,o),
(171,400,o),
(230,400,cs),
(289,400,o),
(345,346,o),
(345,227,c),
(404,237,l),
(404,404,o),
(329,466,o),
(230,466,cs),
(123,466,o),
(29,394,o),
(29,227,cs),
(29,50,o),
(123,-13,o),
(230,-13,cs),
(309,-13,o),
(401,27,o),
(401,187,c)
);
}
);
width = 480;
}
);
unicode = 113;
},
{
glyphname = r;
lastChange = "2025-07-11 00:47:07 +0000";
layers = (
{
layerId = m002;
shapes = (
{
closed = 1;
nodes = (
(310,384,l),
(310,450,l),
(262,450,l),
(136,450,o),
(68,381,o),
(67,244,c),
(119,244,l),
(119,356,o),
(204,384,o),
(262,384,c)
);
},
{
closed = 1;
nodes = (
(129,393,l),
(119,397,l),
(109,449,l),
(43,449,l),
(43,0,l),
(129,0,l)
);
}
);
width = 320;
}
);
unicode = 114;
},
{
glyphname = s;
lastChange = "2025-07-14 16:01:29 +0000";
layers = (
{
layerId = m002;
shapes = (
{
closed = 1;
nodes = (
(94,450,o),
(44,422,o),
(44,339,cs),
(44,257,o),
(100,226,o),
(125,211,cs),
(169,183,o),
(228,180,o),
(228,115,cs),
(228,68,o),
(198,50,o),
(158,51,cs),
(106,52,o),
(82,70,o),
(53,90,c),
(22,28,l),
(62,0,o),
(95,-15,o),
(158,-15,cs),
(212,-15,o),
(304,13,o),
(304,118,cs),
(304,226,o),
(215,248,o),
(169,272,cs),
(138,289,o),
(120,301,o),
(120,339,cs),
(120,363,o),
(130,384,o),
(168,384,cs),
(187,384,o),
(225,383,o),
(288,383,c),
(288,450,l),
(254,450,o),
(222,450,o),
(172,450,cs)
);
}
);
width = 320;
}
);
unicode = 115;
},
{
glyphname = t;
lastChange = "2025-07-10 00:56:49 +0000";
layers = (
{
layerId = m002;
shapes = (
{
closed = 1;
nodes = (
(299,0,l),
(299,68,l),
(233,68,ls),
(203,68,o),
(193,81,o),
(193,106,cs),
(193,589,l),
(107,589,l),
(107,107,ls),
(107,30,o),
(141,0,o),
(233,0,cs)
);
},
{
closed = 1;
nodes = (
(299,384,l),
(299,450,l),
(21,450,l),
(21,384,l)
);
}
);
width = 320;
}
);
unicode = 116;
},
{
glyphname = u;
lastChange = "2025-07-08 23:16:01 +0000";
layers = (
{
layerId = m002;
shapes = (
{
closed = 1;
nodes = (
(135,450,l),
(49,450,l),
(49,144,ls),
(49,18,o),
(133,-16,o),
(220,-16,cs),
(346,-16,o),
(414,103,o),
(414,244,c),
(345,244,l),
(344,126,o),
(333,50,o),
(230,50,cs),
(181,50,o),
(135,66,o),
(135,144,cs)
);
},
{
closed = 1;
nodes = (
(345,56,l),
(355,52,l),
(365,0,l),
(431,0,l),
(431,450,l),
(345,450,l)
);
}
);
width = 480;
}
);
unicode = 117;
},
{
glyphname = v;
lastChange = "2025-07-11 00:29:26 +0000";
layers = (
{
layerId = m002;
shapes = (
{
closed = 1;
nodes = (
(202,1,l),
(278,1,l),
(453,450,l),
(374,450,l),
(229,70,l),
(251,70,l),
(107,450,l),
(27,450,l)
);
}
);
width = 480;
}
);
unicode = 118;
},
{
glyphname = w;
lastChange = "2025-07-08 23:38:03 +0000";
layers = (
{
layerId = m002;
shapes = (
{
closed = 1;
nodes = (
(145,1,l),
(221,1,l),
(321,358,l),
(302,358,l),
(407,1,l),
(483,1,l),
(612,450,l),
(536,450,l),
(441,117,l),
(446,117,l),
(349,450,l),
(273,450,l),
(180,117,l),
(190,117,l),
(104,450,l),
(28,450,l)
);
}
);
width = 640;
}
);
unicode = 119;
},
{
glyphname = x;
lastChange = "2025-07-14 01:18:10 +0000";
layers = (
{
layerId = m002;
shapes = (
{
closed = 1;
nodes = (
(356,1,l),
(445,1,l),
(124,450,l),
(35,450,l)
);
},
{
closed = 1;
nodes = (
(123,0,l),
(260,213,l),
(211,275,l),
(34,0,l)
);
},
{
closed = 1;
nodes = (
(267,213,l),
(421,450,l),
(332,450,l),
(218,275,l)
);
}
);
width = 480;
}
);
unicode = 120;
},
{
glyphname = y;
lastChange = "2025-07-14 16:01:29 +0000";
layers = (
{
layerId = m002;
shapes = (
{
closed = 1;
nodes = (
(204,22,l),
(205,-21,l),
(32,450,l),
(115,450,l),
(249,78,l),
(231,78,l),
(362,450,l),
(445,450,l),
(234,-105,ls),
(221,-139,o),
(192,-200,o),
(121,-200,cs),
(68,-200,o),
(69,-199,o),
(21,-199,c),
(21,-133,l),
(21,-135,o),
(74,-133,o),
(106,-133,cs),
(138,-133,o),
(152,-101,o),
(166,-68,cs)
);
}
);
width = 480;
}
);
unicode = 121;
},
{
glyphname = z;
lastChange = "2025-07-10 01:11:29 +0000";
layers = (
{
layerId = m002;
shapes = (
{
closed = 1;
nodes = (
(21,66,l),
(109,66,l),
(299,384,l),
(211,384,l)
);
},
{
closed = 1;
nodes = (
(21,66,l),
(21,0,l),
(299,0,l),
(299,66,l)
);
},
{
closed = 1;
nodes = (
(21,450,l),
(21,384,l),
(299,384,l),
(299,450,l)
);
}
);
width = 320;
}
);
unicode = 122;
},
{
glyphname = v.001;
lastChange = "2025-07-08 23:17:00 +0000";
layers = (
{
layerId = m002;
shapes = (
{
closed = 1;
nodes = (
(202,1,l),
(278,1,l),
(453,450,l),
(374,450,l),
(229,70,l),
(251,70,l),
(107,450,l),
(27,450,l)
);
}
);
width = 480;
}
);
},
{
glyphname = period;
lastChange = "2025-07-08 19:07:24 +0000";
layers = (
{
layerId = m002;
shapes = (
{
closed = 1;
nodes = (
(130,-16,o),
(157,11,o),
(157,51,cs),
(157,91,o),
(130,118,o),
(90,118,cs),
(50,118,o),
(23,91,o),
(23,51,cs),
(23,11,o),
(50,-16,o),
(90,-16,cs)
);
}
);
width = 180;
}
);
unicode = 46;
},
